<mxfile host="Electron" agent="Mozilla/5.0 (Windows NT 10.0; Win64; x64) AppleWebKit/537.36 (KHTML, like Gecko) draw.io/24.7.8 Chrome/128.0.6613.36 Electron/32.0.1 Safari/537.36" version="24.7.8">
  <diagram name="Seite-1" id="bhteHaFV_CFS_0Fu9Rrk">
    <mxGraphModel dx="957" dy="478" grid="1" gridSize="10" guides="1" tooltips="1" connect="1" arrows="1" fold="1" page="1" pageScale="1" pageWidth="827" pageHeight="1169" math="0" shadow="0">
      <root>
        <mxCell id="0" />
        <mxCell id="1" parent="0" />
        <mxCell id="mv_P2EFcE8zkpO9AOmMs-1" value="ClientState" style="shape=umlFrame;whiteSpace=wrap;html=1;pointerEvents=0;recursiveResize=0;container=1;collapsible=0;width=160;" parent="1" vertex="1">
          <mxGeometry x="80" y="240" width="720" height="360" as="geometry" />
        </mxCell>
        <mxCell id="1F2mQ7YrCzXsIhA7OkNF-12" style="edgeStyle=orthogonalEdgeStyle;rounded=0;orthogonalLoop=1;jettySize=auto;html=1;entryX=0;entryY=0.5;entryDx=0;entryDy=0;exitX=1;exitY=0.5;exitDx=0;exitDy=0;" parent="mv_P2EFcE8zkpO9AOmMs-1" source="1F2mQ7YrCzXsIhA7OkNF-1" target="1F2mQ7YrCzXsIhA7OkNF-27" edge="1">
          <mxGeometry relative="1" as="geometry">
            <mxPoint x="160" y="220" as="targetPoint" />
            <mxPoint x="80" y="220" as="sourcePoint" />
          </mxGeometry>
        </mxCell>
        <mxCell id="1F2mQ7YrCzXsIhA7OkNF-1" value="" style="ellipse;whiteSpace=wrap;html=1;aspect=fixed;fillColor=#000000;" parent="mv_P2EFcE8zkpO9AOmMs-1" vertex="1">
          <mxGeometry x="40" y="200" width="40" height="40" as="geometry" />
        </mxCell>
        <mxCell id="1F2mQ7YrCzXsIhA7OkNF-24" style="edgeStyle=orthogonalEdgeStyle;rounded=0;orthogonalLoop=1;jettySize=auto;html=1;entryX=0.5;entryY=1;entryDx=0;entryDy=0;exitX=0.5;exitY=0;exitDx=0;exitDy=0;" parent="mv_P2EFcE8zkpO9AOmMs-1" source="1F2mQ7YrCzXsIhA7OkNF-27" target="1F2mQ7YrCzXsIhA7OkNF-25" edge="1">
          <mxGeometry relative="1" as="geometry">
            <mxPoint x="180" y="190" as="sourcePoint" />
            <mxPoint x="179.38" y="120" as="targetPoint" />
          </mxGeometry>
        </mxCell>
        <mxCell id="1F2mQ7YrCzXsIhA7OkNF-17" style="edgeStyle=orthogonalEdgeStyle;rounded=1;orthogonalLoop=1;jettySize=auto;html=1;exitX=0;exitY=0.5;exitDx=0;exitDy=0;entryX=0.5;entryY=1;entryDx=0;entryDy=0;curved=0;" parent="mv_P2EFcE8zkpO9AOmMs-1" source="1F2mQ7YrCzXsIhA7OkNF-10" target="1F2mQ7YrCzXsIhA7OkNF-27" edge="1">
          <mxGeometry relative="1" as="geometry">
            <mxPoint x="180" y="250" as="targetPoint" />
          </mxGeometry>
        </mxCell>
        <mxCell id="1F2mQ7YrCzXsIhA7OkNF-25" value="" style="ellipse;whiteSpace=wrap;html=1;aspect=fixed;" parent="mv_P2EFcE8zkpO9AOmMs-1" vertex="1">
          <mxGeometry x="160" y="80" width="40" height="40" as="geometry" />
        </mxCell>
        <mxCell id="1F2mQ7YrCzXsIhA7OkNF-26" value="" style="ellipse;whiteSpace=wrap;html=1;aspect=fixed;fillColor=#000000;" parent="mv_P2EFcE8zkpO9AOmMs-1" vertex="1">
          <mxGeometry x="166.40999999999997" y="86.40999999999997" width="27.18" height="27.18" as="geometry" />
        </mxCell>
        <mxCell id="1F2mQ7YrCzXsIhA7OkNF-28" style="edgeStyle=orthogonalEdgeStyle;rounded=0;orthogonalLoop=1;jettySize=auto;html=1;entryX=0;entryY=0.5;entryDx=0;entryDy=0;exitX=1;exitY=0.5;exitDx=0;exitDy=0;" parent="mv_P2EFcE8zkpO9AOmMs-1" source="1F2mQ7YrCzXsIhA7OkNF-27" target="1F2mQ7YrCzXsIhA7OkNF-7" edge="1">
          <mxGeometry relative="1" as="geometry">
            <mxPoint x="190" y="450" as="sourcePoint" />
            <mxPoint x="290" y="450" as="targetPoint" />
          </mxGeometry>
        </mxCell>
        <mxCell id="1F2mQ7YrCzXsIhA7OkNF-27" value="Dialog" style="rounded=1;whiteSpace=wrap;html=1;" parent="mv_P2EFcE8zkpO9AOmMs-1" vertex="1">
          <mxGeometry x="120" y="200" width="120" height="40" as="geometry" />
        </mxCell>
        <mxCell id="PLO2ItUGVTiK98ipuaq4-2" style="edgeStyle=orthogonalEdgeStyle;rounded=0;orthogonalLoop=1;jettySize=auto;html=1;exitX=0.25;exitY=0;exitDx=0;exitDy=0;entryX=0.25;entryY=1;entryDx=0;entryDy=0;" parent="mv_P2EFcE8zkpO9AOmMs-1" source="1F2mQ7YrCzXsIhA7OkNF-7" target="PLO2ItUGVTiK98ipuaq4-1" edge="1">
          <mxGeometry relative="1" as="geometry" />
        </mxCell>
        <mxCell id="1F2mQ7YrCzXsIhA7OkNF-7" value="Game" style="rounded=1;whiteSpace=wrap;html=1;" parent="mv_P2EFcE8zkpO9AOmMs-1" vertex="1">
          <mxGeometry x="360" y="200" width="120" height="40" as="geometry" />
        </mxCell>
        <mxCell id="1F2mQ7YrCzXsIhA7OkNF-10" value="Ceremony" style="rounded=1;whiteSpace=wrap;html=1;" parent="mv_P2EFcE8zkpO9AOmMs-1" vertex="1">
          <mxGeometry x="360" y="280" width="120" height="40" as="geometry" />
        </mxCell>
        <mxCell id="1F2mQ7YrCzXsIhA7OkNF-16" style="edgeStyle=orthogonalEdgeStyle;rounded=0;orthogonalLoop=1;jettySize=auto;html=1;entryX=0.5;entryY=0;entryDx=0;entryDy=0;exitX=0.5;exitY=1;exitDx=0;exitDy=0;" parent="mv_P2EFcE8zkpO9AOmMs-1" source="1F2mQ7YrCzXsIhA7OkNF-7" target="1F2mQ7YrCzXsIhA7OkNF-10" edge="1">
          <mxGeometry relative="1" as="geometry" />
        </mxCell>
        <mxCell id="PLO2ItUGVTiK98ipuaq4-3" style="edgeStyle=orthogonalEdgeStyle;rounded=0;orthogonalLoop=1;jettySize=auto;html=1;exitX=0.75;exitY=1;exitDx=0;exitDy=0;entryX=0.75;entryY=0;entryDx=0;entryDy=0;" parent="mv_P2EFcE8zkpO9AOmMs-1" source="PLO2ItUGVTiK98ipuaq4-1" target="1F2mQ7YrCzXsIhA7OkNF-7" edge="1">
          <mxGeometry relative="1" as="geometry" />
        </mxCell>
        <mxCell id="E6CSTmqY_YkvVbrenwJI-2" value="receiveGameContinue(msg)" style="edgeLabel;html=1;align=center;verticalAlign=middle;resizable=0;points=[];" parent="PLO2ItUGVTiK98ipuaq4-3" vertex="1" connectable="0">
          <mxGeometry x="-0.15" y="-1" relative="1" as="geometry">
            <mxPoint x="71" as="offset" />
          </mxGeometry>
        </mxCell>
        <mxCell id="PLO2ItUGVTiK98ipuaq4-1" value="Interrupt" style="rounded=1;whiteSpace=wrap;html=1;" parent="mv_P2EFcE8zkpO9AOmMs-1" vertex="1">
          <mxGeometry x="360" y="120" width="120" height="40" as="geometry" />
        </mxCell>
        <mxCell id="PLO2ItUGVTiK98ipuaq4-4" style="edgeStyle=orthogonalEdgeStyle;rounded=1;orthogonalLoop=1;jettySize=auto;html=1;exitX=0.25;exitY=0;exitDx=0;exitDy=0;entryX=0.75;entryY=0;entryDx=0;entryDy=0;curved=0;" parent="mv_P2EFcE8zkpO9AOmMs-1" source="PLO2ItUGVTiK98ipuaq4-1" target="PLO2ItUGVTiK98ipuaq4-1" edge="1">
          <mxGeometry relative="1" as="geometry">
            <Array as="points">
              <mxPoint x="430" y="80" />
              <mxPoint x="490" y="80" />
            </Array>
          </mxGeometry>
        </mxCell>
        <mxCell id="E6CSTmqY_YkvVbrenwJI-3" value="continueGame()" style="edgeLabel;html=1;align=center;verticalAlign=middle;resizable=0;points=[];" parent="PLO2ItUGVTiK98ipuaq4-4" vertex="1" connectable="0">
          <mxGeometry x="-0.0857" relative="1" as="geometry">
            <mxPoint x="6" y="-10" as="offset" />
          </mxGeometry>
        </mxCell>
        <mxCell id="89KkYABjRnFRyUgcsaeE-1" value="receiveGameInterrupt(msg)" style="text;html=1;align=center;verticalAlign=middle;resizable=0;points=[];autosize=1;strokeColor=none;fillColor=none;" vertex="1" parent="1">
          <mxGeometry x="285" y="408" width="170" height="30" as="geometry" />
        </mxCell>
      </root>
    </mxGraphModel>
  </diagram>
</mxfile>
